<svg width="100" height="100" viewBox="0 0 100 100" fill="none" xmlns="http://www.w3.org/2000/svg">
<rect width="100" height="100" rx="21" fill="#371077"/>
<path d="M56.7855 55.1147L49.3641 78H42.4332L38.0522 64.0726L33.4752 78H26.5442L19.1228 55.1147H25.7922L30.402 69.7286L35.2406 55.1147H41.1908L45.8006 69.8594L50.6065 55.1147H56.7855Z" fill="#FF9E0D"/>
<path d="M70.0457 55.1147C72.1163 55.1147 73.9145 55.4634 75.4401 56.1608C76.9658 56.8365 78.1428 57.8173 78.971 59.1032C79.7993 60.3674 80.2134 61.8604 80.2134 63.5822C80.2134 65.3041 79.7993 66.7971 78.971 68.0612C78.1428 69.3254 76.9658 70.3062 75.4401 71.0036C73.9145 71.6793 72.1163 72.0171 70.0457 72.0171H66.0572V78H59.5839V55.1147H70.0457ZM69.6534 66.917C70.983 66.917 71.9856 66.6336 72.6612 66.0669C73.3369 65.4784 73.6747 64.6502 73.6747 63.5822C73.6747 62.5143 73.3369 61.686 72.6612 61.0975C71.9856 60.5091 70.983 60.2148 69.6534 60.2148H66.0572V66.917H69.6534Z" fill="white"/>
<path d="M29.7452 46.4577C26.3451 46.4577 23.6969 45.5314 21.8007 43.6788C19.9263 41.8261 18.9891 39.1998 18.9891 35.7997V23.1147H25.4624V35.6035C25.4624 39.2652 26.9118 41.096 29.8106 41.096C32.6876 41.096 34.1261 39.2652 34.1261 35.6035V23.1147H40.5013V35.7997C40.5013 39.1998 39.5532 41.8261 37.657 43.6788C35.7826 45.5314 33.1453 46.4577 29.7452 46.4577ZM49.4067 28.2475H42.3776V23.1147H62.8763V28.2475H55.88V46H49.4067V28.2475ZM73.2667 46.4577C71.4141 46.4577 69.6159 46.2289 67.8723 45.7711C66.1287 45.3134 64.7119 44.7032 63.6222 43.9403L65.7472 39.1671C66.7716 39.8428 67.9595 40.3876 69.3108 40.8018C70.6621 41.2159 71.9917 41.4229 73.2994 41.4229C75.7841 41.4229 77.0264 40.8018 77.0264 39.5594C77.0264 38.9055 76.6668 38.426 75.9476 38.1209C75.2501 37.794 74.1167 37.4561 72.5474 37.1074C70.8256 36.7369 69.3871 36.3446 68.2319 35.9304C67.0768 35.4945 66.0851 34.808 65.2568 33.8708C64.4286 32.9336 64.0145 31.6694 64.0145 30.0783C64.0145 28.6834 64.3959 27.4302 65.1588 26.3186C65.9216 25.1852 67.055 24.2916 68.5589 23.6378C70.0845 22.9839 71.9481 22.657 74.1494 22.657C75.6533 22.657 77.1354 22.8313 78.5957 23.18C80.056 23.507 81.342 23.9974 82.4535 24.6512L80.4592 29.4572C78.2797 28.2802 76.1655 27.6917 74.1167 27.6917C72.8308 27.6917 71.8936 27.8879 71.3051 28.2802C70.7166 28.6507 70.4224 29.1411 70.4224 29.7514C70.4224 30.3617 70.7711 30.8194 71.4686 31.1245C72.166 31.4297 73.2885 31.7457 74.836 32.0726C76.5796 32.4432 78.0181 32.8464 79.1515 33.2823C80.3067 33.6964 81.2984 34.3721 82.1266 35.3093C82.9766 36.2247 83.4016 37.4779 83.4016 39.069C83.4016 40.4421 83.0202 41.6845 82.2574 42.7961C81.4945 43.9076 80.3503 44.8012 78.8246 45.4769C77.2989 46.1308 75.4463 46.4577 73.2667 46.4577Z" fill="white"/>
</svg>
