<svg width="195" height="46" viewBox="0 0 195 46" fill="none" xmlns="http://www.w3.org/2000/svg">
<rect width="195" height="46" fill="#FF9E0D"/>
<path d="M24.3729 13.0011C24.3654 13.0011 24.3604 13.0011 24.3604 13.0011C24.3517 13.0011 24.3517 13.0011 24.3466 13.0011C24.3441 13.0011 24.3379 13.0011 24.3354 13.0011C24.3354 13.0011 24.3354 13.0011 24.3304 13.0011C24.3066 12.9986 24.2966 13.0011 24.2816 13.0011C21.5112 13.0011 18.8147 14.0757 16.8267 15.9696L14.6259 13.7911C14.5245 13.688 14.3643 13.6561 14.2328 13.7113C14.0964 13.7653 14 13.8978 14 14.0438L14.368 21.4847H21.5024C21.5062 21.4847 21.5162 21.4847 21.5224 21.4847C21.7202 21.4847 21.8867 21.324 21.8867 21.1216C21.8867 20.9916 21.8129 20.8751 21.704 20.8125L19.5382 18.6646C20.8227 17.4527 22.4926 16.789 24.3354 16.789C28.0822 16.8099 31.1368 19.8189 31.1368 23.548C31.108 27.201 28.0609 30.172 24.2753 30.199C21.8066 30.0689 19.4807 28.6313 18.3678 26.2479L14.8588 27.8339L14.8826 27.8818C17.2861 32.4364 21.0743 34.3549 25.1378 33.9464C30.6147 33.5195 34.9624 29.0238 35 23.4952C35.0013 17.7544 30.2379 13.0514 24.3729 13.0011Z" fill="white"/>
</svg>
