<svg width="195" height="46" viewBox="0 0 195 46" fill="none" xmlns="http://www.w3.org/2000/svg">
<rect width="195" height="46" fill="#41B545"/>
<path d="M22.9749 12C17.2238 12 12.5 15.5 12 21H19.5V18C19.5 17.5961 19.7445 17.2311 20.1183 17.076C20.4932 16.9211 20.9241 17.007 21.2108 17.293L28 22.2931C28.392 22.6841 28.392 23.3159 28 23.7071L21.2108 28.707C20.9241 28.993 20.4932 29.079 20.1183 28.924C19.7445 28.769 19.5 28.4039 19.5 28V25H12C12.5 31.5 17.2238 34 22.9749 34C29.0638 34 34 29.075 34 23.0001C34 16.925 29.0638 12 22.9749 12Z" fill="white"/>
</svg>
