<svg width="107" height="41" viewBox="0 0 107 41" fill="none" xmlns="http://www.w3.org/2000/svg">
<path d="M19.4317 21.4114H15.7281V31H13.9547V21.4114H10.2354V19.8577H19.4317V21.4114ZM25.5711 31.0785C24.6923 31.0785 23.9442 30.9268 23.327 30.6234C22.7097 30.32 22.2127 29.9067 21.8361 29.3836C21.4595 28.85 21.1874 28.2537 21.02 27.5945C20.8526 26.925 20.7689 26.2292 20.7689 25.5073V19.8577H22.5266V25.5073C22.5266 26.02 22.5789 26.5169 22.6835 26.9982C22.7882 27.469 22.9556 27.8927 23.1857 28.2694C23.4159 28.646 23.7245 28.9442 24.1116 29.1639C24.5092 29.3836 24.9957 29.4934 25.5711 29.4934C26.157 29.4934 26.6435 29.3836 27.0306 29.1639C27.4282 28.9337 27.742 28.6303 27.9722 28.2537C28.2024 27.8666 28.3645 27.4376 28.4587 26.9668C28.5633 26.496 28.6156 26.0095 28.6156 25.5073V19.8577H30.389V25.5073C30.389 26.2711 30.2948 26.9877 30.1065 27.6573C29.9286 28.3269 29.6461 28.918 29.259 29.4307C28.8824 29.9433 28.3854 30.3461 27.7682 30.6391C27.1614 30.932 26.429 31.0785 25.5711 31.0785ZM40.9028 21.4114H37.1991V31H35.4258V21.4114H31.7065V19.8577H40.9028V21.4114ZM47.0422 31.0785C46.1633 31.0785 45.4153 30.9268 44.798 30.6234C44.1808 30.32 43.6838 29.9067 43.3072 29.3836C42.9305 28.85 42.6585 28.2537 42.4911 27.5945C42.3237 26.925 42.24 26.2292 42.24 25.5073V19.8577H43.9977V25.5073C43.9977 26.02 44.05 26.5169 44.1546 26.9982C44.2592 27.469 44.4266 27.8927 44.6568 28.2694C44.887 28.646 45.1956 28.9442 45.5827 29.1639C45.9803 29.3836 46.4668 29.4934 47.0422 29.4934C47.6281 29.4934 48.1146 29.3836 48.5017 29.1639C48.8992 28.9337 49.2131 28.6303 49.4433 28.2537C49.6734 27.8666 49.8356 27.4376 49.9298 26.9668C50.0344 26.496 50.0867 26.0095 50.0867 25.5073V19.8577H51.86V25.5073C51.86 26.2711 51.7659 26.9877 51.5776 27.6573C51.3997 28.3269 51.1172 28.918 50.7301 29.4307C50.3535 29.9433 49.8565 30.3461 49.2392 30.6391C48.6324 30.932 47.9001 31.0785 47.0422 31.0785ZM54.1976 31V19.8577H58.8742C59.3764 19.8577 59.8367 19.9623 60.2552 20.1716C60.6842 20.3808 61.0504 20.6581 61.3538 21.0033C61.6676 21.3486 61.9083 21.7357 62.0757 22.1646C62.2431 22.5936 62.3268 23.033 62.3268 23.4829C62.3268 24.1106 62.1855 24.7017 61.903 25.2562C61.6206 25.8107 61.2282 26.2606 60.726 26.6059C60.2239 26.9511 59.638 27.1237 58.9684 27.1237H55.9553V31H54.1976ZM55.9553 25.5701H58.8585C59.3503 25.5701 59.7531 25.3713 60.0669 24.9738C60.3808 24.5762 60.5377 24.0792 60.5377 23.4829C60.5377 23.0749 60.454 22.7191 60.2866 22.4157C60.1192 22.1019 59.8995 21.856 59.6275 21.6782C59.3659 21.5003 59.0782 21.4114 58.7644 21.4114H55.9553V25.5701Z" fill="white"/>
<rect x="74" y="16" width="19" height="19" rx="9.5" fill="#FC4949"/>
<path d="M78.7339 20.7339C79.0849 20.383 79.6539 20.383 80.0049 20.7339L88.2663 28.9953C88.6173 29.3463 88.6173 29.9153 88.2663 30.2663C87.9153 30.6173 87.3463 30.6173 86.9953 30.2663L78.7339 22.0049C78.383 21.6539 78.383 21.0849 78.7339 20.7339Z" fill="white"/>
<path d="M78.7339 30.2663C78.383 29.9153 78.383 29.3463 78.7339 28.9953L86.9953 20.7339C87.3463 20.383 87.9153 20.383 88.2663 20.7339C88.6173 21.0849 88.6173 21.6539 88.2663 22.0049L80.0049 30.2663C79.6539 30.6173 79.0849 30.6173 78.7339 30.2663Z" fill="white"/>
</svg>
