<svg width="293" height="200" viewBox="0 0 293 200" fill="none" xmlns="http://www.w3.org/2000/svg">
<rect x="1" y="155" width="82" height="45" rx="8" fill="#371869"/>
<rect x="14.1558" y="170" width="15" height="15" rx="7.5" fill="#1C083D"/>
<rect x="34.9998" y="170" width="15" height="15" rx="7.5" fill="#1C083D"/>
<rect x="55.844" y="170" width="15" height="15" rx="7.5" fill="#1C083D"/>
<path d="M1 94H177V169C177 173.418 173.418 177 169 177H9C4.58172 177 1 173.418 1 169V94Z" fill="#564079"/>
<path d="M1 77C1 72.5817 4.58172 69 9 69H169C173.418 69 177 72.5817 177 77V94H1V77Z" fill="#564079"/>
<rect x="12" y="76" width="12.04" height="12.04" rx="6.02" fill="#FC4949"/>
<rect x="27.48" y="76" width="12.04" height="12.04" rx="6.02" fill="#FF9E0D"/>
<rect x="42.96" y="76" width="12.04" height="12.04" rx="6.02" fill="#41B545"/>
<rect x="123" y="116" width="82" height="45" rx="8" fill="#1C083D"/>
<rect x="136.156" y="131" width="15" height="15" rx="7.5" fill="white" fill-opacity="0.63"/>
<rect x="157" y="131" width="15" height="15" rx="7.5" fill="white" fill-opacity="0.63"/>
<rect x="177.844" y="131" width="15" height="15" rx="7.5" fill="white" fill-opacity="0.63"/>
<path d="M-6.24855e-05 27.9885C-6.24855e-05 24.547 2.54647 20.2979 5.68874 18.5L37.0175 0.566825C40.1611 -1.2324 47.0855 1.44966 47.0735 5.8236L42.7076 24.9348C42.7076 28.0569 40.6038 31.8231 37.8681 33.8424L41.9965 41.6913C41.9965 41.6913 33.3278 40.304 28.2333 39.4506L10.2814 49.7267C11.2514 51.7876 11.5842 54.0846 9.3167 55.3552C4.8059 57.8829 0.489635 54.3503 0.0428484 50.1011C0.017356 49.8717 -6.24855e-05 49.6342 -6.24855e-05 49.3806V27.9885" fill="url(#paint0_linear)"/>
<path d="M10.067 21.1269L41.3958 3.19238C44.538 1.3945 47.0859 2.72684 47.0859 6.1683V27.5617C47.0859 30.6839 44.9808 34.45 42.2451 36.4693L46.3748 44.3169C46.3748 44.3169 37.7061 42.9309 32.613 42.0776L10.067 54.9834C6.92478 56.7813 4.37824 55.449 4.37824 52.0075V30.6141C4.37824 27.174 6.92478 22.9261 10.067 21.1269Z" fill="#F78D34"/>
<rect x="18" y="103" width="70" height="9" rx="4.5" fill="#1C083D"/>
<rect x="18" y="120" width="42" height="9" rx="4.5" fill="#1C083D"/>
<path d="M215.363 170.538C216.812 167.903 218.321 165.126 219.797 162.283L230.714 149.848C234.069 146.026 235.462 140.871 234.491 135.88C233.141 128.947 231.088 120.722 236.939 113.022C241.824 106.592 245.436 103.343 245.436 103.343C249.543 119.297 243.933 132.542 239.203 140.178L247.11 131.172C247.964 130.202 248.739 129.169 249.433 128.089C262.788 113.19 275.141 97.5852 279.089 84.3952C279.13 84.3319 279.171 84.27 279.209 84.2053C279.209 84.2053 280.031 103.504 271.109 114.816C264.314 123.43 253.681 130.222 248.988 132.976C248.172 133.455 247.445 134.053 246.821 134.763L238.3 144.467C245.565 139.309 256.827 133.985 271.102 135.739C271.102 135.739 268.346 139.742 262.604 145.417C252.911 154.996 240.153 149.142 232.489 151.087L215.43 170.516C215.408 170.523 215.385 170.531 215.363 170.538V170.538ZM253.193 118.268C253.55 116.329 253.863 114.388 254.227 112.487C253.873 114.393 253.561 116.332 253.193 118.268Z" fill="url(#paint1_linear)"/>
<defs>
<linearGradient id="paint0_linear" x1="47.0735" y1="28.1012" x2="-0.000598693" y2="28.1012" gradientUnits="userSpaceOnUse">
<stop stop-color="#F57F21"/>
<stop offset="0.00250401" stop-color="#F57F21"/>
<stop offset="0.452905" stop-color="#F35F29"/>
<stop offset="1" stop-color="#F35F29"/>
</linearGradient>
<linearGradient id="paint1_linear" x1="274.062" y1="101.556" x2="228.903" y2="152.984" gradientUnits="userSpaceOnUse">
<stop stop-color="#719ED9"/>
<stop offset="1" stop-color="#4554AD"/>
</linearGradient>
</defs>
</svg>
