<svg width="1031" height="59" viewBox="0 0 1031 59" fill="none" xmlns="http://www.w3.org/2000/svg">
<rect width="1031" height="59" fill="#1C083D"/>
<path d="M405.675 41.4437C402.379 41.4437 399.811 40.5457 397.973 38.7498C396.156 36.9538 395.248 34.4078 395.248 31.1117V18.8147H401.523V30.9215C401.523 34.4712 402.928 36.246 405.738 36.246C408.527 36.246 409.922 34.4712 409.922 30.9215V18.8147H416.102V31.1117C416.102 34.4078 415.183 36.9538 413.345 38.7498C411.527 40.5457 408.971 41.4437 405.675 41.4437ZM424.735 23.7905H417.921V18.8147H437.792V23.7905H431.01V41H424.735V23.7905ZM447.865 41.4437C446.069 41.4437 444.326 41.2219 442.636 40.7781C440.945 40.3344 439.572 39.7428 438.515 39.0033L440.576 34.3761C441.569 35.0311 442.72 35.5593 444.03 35.9608C445.34 36.3622 446.629 36.5629 447.897 36.5629C450.305 36.5629 451.51 35.9608 451.51 34.7564C451.51 34.1225 451.161 33.6577 450.464 33.3619C449.788 33.045 448.689 32.7175 447.168 32.3794C445.499 32.0202 444.104 31.6399 442.984 31.2384C441.864 30.8159 440.903 30.1503 440.1 29.2418C439.297 28.3332 438.896 27.1077 438.896 25.5653C438.896 24.2131 439.266 22.9982 440.005 21.9206C440.745 20.8219 441.843 19.9556 443.301 19.3218C444.78 18.6879 446.587 18.371 448.721 18.371C450.179 18.371 451.615 18.54 453.031 18.878C454.447 19.195 455.693 19.6704 456.771 20.3042L454.838 24.9632C452.725 23.8222 450.675 23.2517 448.689 23.2517C447.442 23.2517 446.534 23.4419 445.963 23.8222C445.393 24.1814 445.108 24.6568 445.108 25.2484C445.108 25.84 445.446 26.2837 446.122 26.5795C446.798 26.8753 447.886 27.1817 449.386 27.4986C451.077 27.8578 452.471 28.2487 453.57 28.6713C454.69 29.0727 455.651 29.7277 456.454 30.6363C457.278 31.5237 457.69 32.7386 457.69 34.281C457.69 35.6121 457.32 36.8165 456.581 37.8941C455.841 38.9716 454.732 39.8379 453.253 40.4929C451.774 41.1268 449.978 41.4437 447.865 41.4437Z" fill="white" fill-opacity="0.25"/>
<path d="M495.388 18.8147L488.194 41H481.475L477.228 27.4986L472.791 41H466.072L458.877 18.8147H465.343L469.811 32.9816L474.502 18.8147H480.27L484.739 33.1084L489.398 18.8147H495.388ZM515.448 36.1509V41H497.636V18.8147H515.036V23.6637H503.848V27.4036H513.705V32.0942H503.848V36.1509H515.448ZM535.981 29.4319C537.249 29.8756 538.242 30.5729 538.961 31.5237C539.679 32.4534 540.038 33.5838 540.038 34.9149C540.038 36.8587 539.256 38.3589 537.693 39.4153C536.129 40.4718 533.869 41 530.91 41H518.93V18.8147H530.277C533.108 18.8147 535.263 19.3429 536.742 20.3993C538.221 21.4346 538.961 22.8397 538.961 24.6145C538.961 25.671 538.696 26.6218 538.168 27.4669C537.661 28.291 536.932 28.946 535.981 29.4319ZM525.142 23.3468V27.6254H529.453C531.565 27.6254 532.622 26.907 532.622 25.4703C532.622 24.0546 531.565 23.3468 529.453 23.3468H525.142ZM530.403 36.4679C532.601 36.4679 533.699 35.7178 533.699 34.2176C533.699 32.7175 532.601 31.9674 530.403 31.9674H525.142V36.4679H530.403Z" fill="#FF9E0D"/>
<path d="M553.43 18.8147C555.438 18.8147 557.181 19.1527 558.66 19.8288C560.139 20.4838 561.28 21.4346 562.083 22.6812C562.886 23.9067 563.287 25.3541 563.287 27.0232C563.287 28.6924 562.886 30.1397 562.083 31.3652C561.28 32.5907 560.139 33.5415 558.66 34.2176C557.181 34.8726 555.438 35.2001 553.43 35.2001H549.564V41H543.288V18.8147H553.43ZM553.05 30.256C554.339 30.256 555.311 29.9813 555.966 29.4319C556.621 28.8614 556.948 28.0586 556.948 27.0232C556.948 25.9879 556.621 25.185 555.966 24.6145C555.311 24.0441 554.339 23.7588 553.05 23.7588H549.564V30.256H553.05ZM576.045 35.105H572.622V41H566.347V18.8147H576.488C578.496 18.8147 580.239 19.1527 581.718 19.8288C583.197 20.4838 584.338 21.4346 585.141 22.6812C585.944 23.9067 586.345 25.3541 586.345 27.0232C586.345 28.629 585.965 30.0341 585.204 31.2384C584.465 32.4217 583.398 33.3513 582.003 34.0275L586.789 41H580.07L576.045 35.105ZM580.006 27.0232C580.006 25.9879 579.679 25.185 579.024 24.6145C578.369 24.0441 577.397 23.7588 576.108 23.7588H572.622V30.256H576.108C577.397 30.256 578.369 29.9813 579.024 29.4319C579.679 28.8614 580.006 28.0586 580.006 27.0232ZM600.995 41.4437C598.65 41.4437 596.537 40.9472 594.656 39.9541C592.797 38.9611 591.328 37.5877 590.251 35.834C589.194 34.0803 588.666 32.1047 588.666 29.9073C588.666 27.7099 589.194 25.7344 590.251 23.9807C591.328 22.227 592.797 20.8536 594.656 19.8605C596.537 18.8675 598.65 18.371 600.995 18.371C603.34 18.371 605.442 18.8675 607.302 19.8605C609.182 20.8536 610.651 22.227 611.707 23.9807C612.785 25.7344 613.324 27.7099 613.324 29.9073C613.324 32.1047 612.785 34.0803 611.707 35.834C610.651 37.5877 609.182 38.9611 607.302 39.9541C605.442 40.9472 603.34 41.4437 600.995 41.4437ZM600.995 36.246C602.115 36.246 603.129 35.9819 604.037 35.4537C604.946 34.9254 605.664 34.1859 606.193 33.2351C606.721 32.2632 606.985 31.1539 606.985 29.9073C606.985 28.6607 606.721 27.562 606.193 26.6112C605.664 25.6393 604.946 24.8892 604.037 24.361C603.129 23.8328 602.115 23.5687 600.995 23.5687C599.875 23.5687 598.861 23.8328 597.952 24.361C597.044 24.8892 596.325 25.6393 595.797 26.6112C595.269 27.562 595.005 28.6607 595.005 29.9073C595.005 31.1539 595.269 32.2632 595.797 33.2351C596.325 34.1859 597.044 34.9254 597.952 35.4537C598.861 35.9819 599.875 36.246 600.995 36.246ZM631.474 29.4319H637.021V38.623C635.753 39.5315 634.295 40.2288 632.647 40.7148C630.999 41.2007 629.351 41.4437 627.703 41.4437C625.379 41.4437 623.287 40.9577 621.428 39.9858C619.568 38.9928 618.11 37.6194 617.054 35.8657C615.998 34.112 615.469 32.1259 615.469 29.9073C615.469 27.6888 615.998 25.7027 617.054 23.949C618.11 22.1953 619.579 20.8325 621.459 19.8605C623.34 18.8675 625.463 18.371 627.83 18.371C629.9 18.371 631.76 18.7196 633.408 19.4168C635.056 20.1141 636.429 21.1177 637.528 22.4277L633.535 26.0407C632.034 24.3927 630.238 23.5687 628.147 23.5687C626.245 23.5687 624.713 24.1497 623.551 25.3118C622.389 26.4528 621.808 27.9846 621.808 29.9073C621.808 31.1328 622.072 32.2315 622.6 33.2034C623.129 34.1542 623.868 34.9043 624.819 35.4537C625.77 35.9819 626.858 36.246 628.083 36.246C629.288 36.246 630.418 36.003 631.474 35.5171V29.4319Z" fill="white"/>
</svg>
