<svg width="28" height="28" viewBox="0 0 28 28" fill="none" xmlns="http://www.w3.org/2000/svg">
<rect width="28" height="28" rx="14" fill="#FC4949"/>
<path d="M6.32471 13.9273C6.87246 13.2331 7.87921 13.1144 8.57336 13.6622L14.319 18.196C15.0132 18.7438 15.1319 19.7505 14.5841 20.4447C14.0364 21.1388 13.0296 21.2575 12.3355 20.7098L6.5898 16.1759C5.89565 15.6282 5.77697 14.6214 6.32471 13.9273Z" fill="white"/>
<path d="M21.6866 8.85938C22.3807 9.40713 22.4994 10.4139 21.9516 11.108L14.5841 20.4447C14.0364 21.1388 13.0296 21.2575 12.3355 20.7098C11.6413 20.162 11.5226 19.1553 12.0704 18.4612L19.4379 9.12447C19.9857 8.43032 20.9924 8.31163 21.6866 8.85938Z" fill="white"/>
</svg>
