<svg width="331" height="181" viewBox="0 0 331 181" fill="none" xmlns="http://www.w3.org/2000/svg">
<path d="M0 25H331V178.448C331 179.857 327.418 181 323 181H8.00001C3.58173 181 0 179.857 0 178.448V25Z" fill="white"/>
<path d="M0 8C0 3.58172 3.58172 0 8 0H323C327.418 0 331 3.58172 331 8V25H0V8Z" fill="#CDCDCD"/>
<path d="M23.04 13.02C23.04 9.69525 20.3448 7 17.02 7C13.6952 7 11 9.69525 11 13.02C11 16.3448 13.6952 19.04 17.02 19.04C20.3448 19.04 23.04 16.3448 23.04 13.02Z" fill="#FC4949"/>
<path d="M38.52 13.02C38.52 9.69525 35.8247 7 32.5 7C29.1752 7 26.48 9.69525 26.48 13.02C26.48 16.3448 29.1752 19.04 32.5 19.04C35.8247 19.04 38.52 16.3448 38.52 13.02Z" fill="#FF9E0D"/>
<path d="M54 13.02C54 9.69525 51.3047 7 47.98 7C44.6552 7 41.96 9.69525 41.96 13.02C41.96 16.3448 44.6552 19.04 47.98 19.04C51.3047 19.04 54 16.3448 54 13.02Z" fill="#41B545"/>
<path d="M286.545 14.4336H285.461C285.426 14.6914 285.365 14.9316 285.279 15.1543C285.193 15.373 285.078 15.5625 284.934 15.7227C284.789 15.8867 284.611 16.0137 284.4 16.1035C284.193 16.1934 283.947 16.2383 283.662 16.2383C283.4 16.2383 283.172 16.1973 282.977 16.1152C282.781 16.0293 282.611 15.9121 282.467 15.7637C282.322 15.6191 282.203 15.4512 282.109 15.2598C282.016 15.0684 281.939 14.8633 281.881 14.6445C281.822 14.4297 281.779 14.2109 281.752 13.9883C281.729 13.7617 281.717 13.543 281.717 13.332V12.1309C281.717 11.9199 281.729 11.7031 281.752 11.4805C281.779 11.2539 281.822 11.0332 281.881 10.8184C281.939 10.6035 282.016 10.4004 282.109 10.209C282.207 10.0176 282.328 9.84961 282.473 9.70508C282.613 9.56055 282.781 9.44727 282.977 9.36523C283.176 9.2793 283.404 9.23633 283.662 9.23633C283.947 9.23633 284.193 9.28516 284.4 9.38281C284.611 9.47656 284.789 9.60742 284.934 9.77539C285.078 9.94336 285.193 10.1387 285.279 10.3613C285.365 10.584 285.426 10.8242 285.461 11.082H286.545C286.498 10.6758 286.4 10.3047 286.252 9.96875C286.107 9.63281 285.914 9.34375 285.672 9.10156C285.43 8.86328 285.141 8.67969 284.805 8.55078C284.469 8.41797 284.088 8.35156 283.662 8.35156C283.307 8.35156 282.986 8.40234 282.701 8.50391C282.416 8.60156 282.162 8.73828 281.939 8.91406C281.713 9.08984 281.518 9.29883 281.354 9.54102C281.193 9.7793 281.061 10.0391 280.955 10.3203C280.846 10.6016 280.764 10.8965 280.709 11.2051C280.658 11.5137 280.631 11.8262 280.627 12.1426V13.332C280.631 13.6484 280.658 13.9609 280.709 14.2695C280.764 14.5781 280.846 14.873 280.955 15.1543C281.061 15.4355 281.193 15.6953 281.354 15.9336C281.518 16.1719 281.713 16.3789 281.939 16.5547C282.162 16.7305 282.416 16.8691 282.701 16.9707C282.99 17.0684 283.311 17.1172 283.662 17.1172C284.072 17.1172 284.443 17.0527 284.775 16.9238C285.111 16.791 285.402 16.6055 285.648 16.3672C285.891 16.1328 286.088 15.8516 286.24 15.5234C286.393 15.1914 286.494 14.8281 286.545 14.4336ZM289.451 16.0801V8.46875H288.367V17H293.623V16.0801H289.451ZM300.982 13.2266V12.2539C300.979 11.9492 300.951 11.6406 300.9 11.3281C300.854 11.0156 300.779 10.7148 300.678 10.4258C300.572 10.1367 300.439 9.86719 300.279 9.61719C300.123 9.36328 299.936 9.14258 299.717 8.95508C299.498 8.76758 299.246 8.62109 298.961 8.51562C298.676 8.40625 298.357 8.35156 298.006 8.35156C297.654 8.35156 297.336 8.40625 297.051 8.51562C296.77 8.62109 296.52 8.76758 296.301 8.95508C296.082 9.14648 295.893 9.36914 295.732 9.62305C295.576 9.87305 295.447 10.1426 295.346 10.4316C295.24 10.7207 295.162 11.0215 295.111 11.334C295.064 11.6426 295.039 11.9492 295.035 12.2539V13.2266C295.039 13.5312 295.066 13.8379 295.117 14.1465C295.168 14.4551 295.246 14.7539 295.352 15.043C295.453 15.332 295.584 15.6035 295.744 15.8574C295.904 16.1074 296.094 16.3262 296.312 16.5137C296.531 16.7012 296.781 16.8496 297.062 16.959C297.348 17.0645 297.666 17.1172 298.018 17.1172C298.369 17.1172 298.686 17.0645 298.967 16.959C299.252 16.8496 299.504 16.7012 299.723 16.5137C299.941 16.3262 300.129 16.1074 300.285 15.8574C300.445 15.6074 300.576 15.3379 300.678 15.0488C300.779 14.7598 300.854 14.4609 300.9 14.1523C300.951 13.8398 300.979 13.5312 300.982 13.2266ZM299.91 12.2422V13.2266C299.906 13.4297 299.893 13.6426 299.869 13.8652C299.85 14.0879 299.812 14.3066 299.758 14.5215C299.699 14.7402 299.623 14.9492 299.529 15.1484C299.439 15.3438 299.326 15.5156 299.189 15.6641C299.049 15.8164 298.881 15.9375 298.686 16.0273C298.494 16.1172 298.271 16.1621 298.018 16.1621C297.764 16.1621 297.541 16.1172 297.35 16.0273C297.158 15.9375 296.992 15.8164 296.852 15.6641C296.711 15.5156 296.594 15.3418 296.5 15.1426C296.406 14.9434 296.33 14.7344 296.271 14.5156C296.213 14.3008 296.17 14.082 296.143 13.8594C296.119 13.6367 296.105 13.4258 296.102 13.2266V12.2422C296.105 12.043 296.119 11.834 296.143 11.6152C296.17 11.3926 296.213 11.1719 296.271 10.9531C296.326 10.7383 296.4 10.5332 296.494 10.3379C296.588 10.1387 296.705 9.96289 296.846 9.81055C296.986 9.66211 297.152 9.54297 297.344 9.45312C297.535 9.36328 297.756 9.31836 298.006 9.31836C298.26 9.31836 298.482 9.36328 298.674 9.45312C298.865 9.53906 299.031 9.65625 299.172 9.80469C299.312 9.95703 299.43 10.1328 299.523 10.332C299.617 10.5273 299.693 10.7324 299.752 10.9473C299.807 11.166 299.846 11.3867 299.869 11.6094C299.893 11.8281 299.906 12.0391 299.91 12.2422ZM307.105 14.8438C307.105 15.0781 307.055 15.2812 306.953 15.4531C306.852 15.6211 306.721 15.7598 306.561 15.8691C306.4 15.9824 306.217 16.0664 306.01 16.1211C305.807 16.1719 305.6 16.1973 305.389 16.1973C305.123 16.1973 304.877 16.1621 304.65 16.0918C304.428 16.0176 304.23 15.9082 304.059 15.7637C303.887 15.623 303.746 15.4512 303.637 15.248C303.527 15.041 303.455 14.8047 303.42 14.5391H302.312C302.324 14.9062 302.404 15.2402 302.553 15.541C302.705 15.8379 302.91 16.0977 303.168 16.3203C303.457 16.5781 303.797 16.7754 304.188 16.9121C304.582 17.0488 304.982 17.1172 305.389 17.1172C305.729 17.1172 306.068 17.0703 306.408 16.9766C306.748 16.8789 307.053 16.7344 307.322 16.543C307.592 16.3555 307.811 16.1191 307.979 15.834C308.15 15.5488 308.236 15.2148 308.236 14.832C308.236 14.4531 308.156 14.1191 307.996 13.8301C307.84 13.541 307.633 13.2969 307.375 13.0977C307.113 12.8828 306.824 12.707 306.508 12.5703C306.191 12.4297 305.875 12.3105 305.559 12.2129C305.367 12.1543 305.162 12.0859 304.943 12.0078C304.729 11.9297 304.529 11.832 304.346 11.7148C304.158 11.5977 304.004 11.4551 303.883 11.2871C303.762 11.1152 303.699 10.9062 303.695 10.6602C303.695 10.4336 303.74 10.2344 303.83 10.0625C303.924 9.89062 304.049 9.74609 304.205 9.62891C304.357 9.51172 304.531 9.42383 304.727 9.36523C304.926 9.30664 305.129 9.27734 305.336 9.27734C305.594 9.27734 305.824 9.31836 306.027 9.40039C306.234 9.47852 306.412 9.58984 306.561 9.73438C306.709 9.87891 306.828 10.0527 306.918 10.2559C307.008 10.4551 307.068 10.6777 307.1 10.9238H308.213C308.205 10.5332 308.121 10.1797 307.961 9.86328C307.801 9.54688 307.588 9.27734 307.322 9.05469C307.057 8.83203 306.752 8.66016 306.408 8.53906C306.064 8.41406 305.707 8.35156 305.336 8.35156C305 8.35156 304.666 8.4043 304.334 8.50977C304.002 8.61133 303.705 8.76172 303.443 8.96094C303.182 9.16016 302.969 9.4043 302.805 9.69336C302.645 9.98242 302.564 10.3105 302.564 10.6777C302.564 11.0449 302.645 11.3652 302.805 11.6387C302.969 11.9082 303.18 12.1426 303.438 12.3418C303.691 12.5371 303.973 12.7051 304.281 12.8457C304.594 12.9824 304.9 13.0996 305.201 13.1973C305.408 13.2637 305.623 13.3379 305.846 13.4199C306.072 13.502 306.279 13.6035 306.467 13.7246C306.654 13.8496 306.807 14.002 306.924 14.1816C307.045 14.3613 307.105 14.582 307.105 14.8438ZM314.541 13.0566V12.1367H310.979V9.39453H315.08V8.46875H309.895V17H315.133V16.0801H310.979V13.0566H314.541Z" fill="#616161"/>
</svg>
